<svg xmlns="http://www.w3.org/2000/svg" viewBox="0 0 900 1350" role="img" aria-labelledby="title desc">
  <title id="title">《后来如何》封面</title>
  <desc id="desc">档案室、台灯、旧纸与窗外路灯组成的文学封面。</desc>
  <defs>
    <linearGradient id="bg" x1="0" y1="0" x2="1" y2="1">
      <stop offset="0" stop-color="#151412"/>
      <stop offset="0.48" stop-color="#24201b"/>
      <stop offset="1" stop-color="#0f0f0e"/>
    </linearGradient>
    <radialGradient id="lamp" cx="62%" cy="62%" r="34%">
      <stop offset="0" stop-color="#e4b86d" stop-opacity="0.72"/>
      <stop offset="0.45" stop-color="#9b6a38" stop-opacity="0.18"/>
      <stop offset="1" stop-color="#000000" stop-opacity="0"/>
    </radialGradient>
    <filter id="grain">
      <feTurbulence type="fractalNoise" baseFrequency="0.75" numOctaves="3" stitchTiles="stitch"/>
      <feColorMatrix type="saturate" values="0"/>
      <feComponentTransfer>
        <feFuncA type="table" tableValues="0 0.12"/>
      </feComponentTransfer>
    </filter>
  </defs>
  <rect width="900" height="1350" fill="url(#bg)"/>
  <rect width="900" height="1350" filter="url(#grain)" opacity="0.42"/>
  <rect x="35" y="35" width="830" height="1280" fill="none" stroke="#5a4435" stroke-width="2" opacity="0.55"/>
  <rect x="68" y="70" width="365" height="1210" fill="#1b1916" stroke="#41362f" stroke-width="1.5"/>
  <line x1="73" y1="72" x2="73" y2="1278" stroke="#9e382b" stroke-width="3" opacity="0.78"/>
  <line x1="103" y1="1125" x2="312" y2="1125" stroke="#9e382b" stroke-width="4" opacity="0.76"/>
  <line x1="103" y1="1137" x2="312" y2="1137" stroke="#6e251e" stroke-width="2" opacity="0.9"/>
  <rect x="482" y="82" width="310" height="610" rx="8" fill="#171717" stroke="#39332c" stroke-width="3"/>
  <linearGradient id="sky" x1="0" y1="0" x2="0" y2="1">
    <stop offset="0" stop-color="#3d3732"/>
    <stop offset="0.5" stop-color="#5f4431"/>
    <stop offset="1" stop-color="#161615"/>
  </linearGradient>
  <rect x="497" y="98" width="280" height="580" rx="3" fill="url(#sky)"/>
  <rect x="520" y="560" width="45" height="118" fill="#181716"/>
  <rect x="585" y="520" width="75" height="158" fill="#191817"/>
  <rect x="680" y="490" width="55" height="188" fill="#181716"/>
  <rect x="545" y="578" width="9" height="7" fill="#c39154" opacity="0.85"/>
  <rect x="611" y="544" width="10" height="8" fill="#c39154" opacity="0.75"/>
  <rect x="702" y="514" width="8" height="8" fill="#c39154" opacity="0.68"/>
  <path d="M646 514 C668 455, 726 455, 744 492" fill="none" stroke="#171615" stroke-width="10" stroke-linecap="round"/>
  <ellipse cx="744" cy="494" rx="28" ry="12" fill="#d8a45b" opacity="0.92"/>
  <rect x="790" y="95" width="70" height="740" fill="#12110f" opacity="0.88"/>
  <g opacity="0.55">
    <rect x="804" y="130" width="40" height="120" fill="#372f26"/>
    <rect x="804" y="270" width="40" height="120" fill="#372f26"/>
    <rect x="804" y="410" width="40" height="120" fill="#372f26"/>
    <rect x="804" y="550" width="40" height="120" fill="#372f26"/>
  </g>
  <ellipse cx="630" cy="870" rx="265" ry="150" fill="url(#lamp)"/>
  <g transform="translate(468 690) rotate(-4)">
    <rect x="0" y="150" width="360" height="34" fill="#5a4937"/>
    <rect x="22" y="100" width="330" height="74" fill="#816546"/>
    <rect x="42" y="65" width="300" height="88" fill="#b18b5e"/>
    <rect x="60" y="48" width="270" height="92" fill="#cfb27d"/>
    <line x1="75" y1="82" x2="310" y2="64" stroke="#5d4733" stroke-width="2" opacity="0.45"/>
    <line x1="82" y1="112" x2="298" y2="98" stroke="#5d4733" stroke-width="2" opacity="0.35"/>
    <line x1="150" y1="40" x2="248" y2="162" stroke="#5c3926" stroke-width="7" opacity="0.5"/>
    <circle cx="178" cy="74" r="15" fill="none" stroke="#5c3926" stroke-width="6" opacity="0.75"/>
  </g>
  <g transform="translate(635 610)">
    <line x1="88" y1="265" x2="138" y2="42" stroke="#35271f" stroke-width="14" stroke-linecap="round"/>
    <ellipse cx="115" cy="34" rx="92" ry="34" transform="rotate(-15 115 34)" fill="#2a2520" stroke="#5a4634" stroke-width="3"/>
    <ellipse cx="116" cy="36" rx="62" ry="19" transform="rotate(-15 116 36)" fill="#d69d54" opacity="0.82"/>
    <circle cx="79" cy="274" r="44" fill="#2a211a" stroke="#5a4634" stroke-width="3"/>
  </g>
  <text x="112" y="205" fill="#eee6d8" font-size="72" font-family="Noto Serif SC, Songti SC, SimSun, serif" font-weight="700" writing-mode="tb">后来如何</text>
  <text x="176" y="205" fill="#a89c8d" font-size="28" font-family="Noto Serif SC, Songti SC, SimSun, serif" writing-mode="tb">潇思雨</text>
  <text x="118" y="1005" fill="#8f3d2f" font-size="22" font-family="Noto Serif SC, Songti SC, SimSun, serif">WHAT REMAINS</text>
</svg>
